<svg width="12" height="12" viewBox="0 0 12 12" fill="none" xmlns="http://www.w3.org/2000/svg">
<g opacity="0.7">
<path fill-rule="evenodd" clip-rule="evenodd" d="M5.8125 1.5C5.96168 1.5 6.10476 1.55927 6.21025 1.66475C6.31573 1.77024 6.375 1.91332 6.375 2.0625V5.25H9.5625C9.71167 5.25 9.85478 5.30926 9.96023 5.41475C10.0658 5.52024 10.125 5.66332 10.125 5.8125C10.125 5.96168 10.0658 6.10476 9.96023 6.21025C9.85478 6.31573 9.71167 6.375 9.5625 6.375H6.375V9.5625C6.375 9.71167 6.31573 9.85478 6.21025 9.96023C6.10476 10.0658 5.96168 10.125 5.8125 10.125C5.66332 10.125 5.52024 10.0658 5.41475 9.96023C5.30926 9.85478 5.25 9.71167 5.25 9.5625V6.375H2.0625C1.91332 6.375 1.77024 6.31573 1.66475 6.21025C1.55927 6.10476 1.5 5.96168 1.5 5.8125C1.5 5.66332 1.55927 5.52024 1.66475 5.41475C1.77024 5.30926 1.91332 5.25 2.0625 5.25H5.25V2.0625C5.25 1.91332 5.30926 1.77024 5.41475 1.66475C5.52024 1.55927 5.66332 1.5 5.8125 1.5Z" fill="#24292E"/>
</g>
</svg>
